<svg width="320" height="64" viewBox="0 0 320 64" fill="none" xmlns="http://www.w3.org/2000/svg">
  <!-- Icon -->
  <rect x="2" y="8" width="38" height="48" rx="8" fill="#dce0e8" stroke="#179299" stroke-width="2"/>
  <rect x="7" y="14" width="28" height="34" rx="5" fill="#eff1f5" stroke="#ccd0da" stroke-width="1"/>
  <path d="M13 18 L13 42 L31 42 L31 24 L25 18 Z" fill="#e6e9ef" stroke="#179299" stroke-width="1.2" stroke-linejoin="round"/>
  <path d="M25 18 L25 24 L31 24" fill="none" stroke="#179299" stroke-width="1.2" stroke-linejoin="round"/>
  <line x1="16" y1="28" x2="27" y2="28" stroke="#9ca0b0" stroke-width="1.2" stroke-linecap="round"/>
  <line x1="16" y1="32" x2="28" y2="32" stroke="#acb0be" stroke-width="1" stroke-linecap="round"/>
  <line x1="16" y1="36" x2="24" y2="36" stroke="#acb0be" stroke-width="1" stroke-linecap="round"/>
  <!-- Nodes -->
  <circle cx="52" cy="16" r="5" fill="#dce0e8" stroke="#179299" stroke-width="1.5"/>
  <circle cx="52" cy="16" r="2" fill="#179299"/>
  <circle cx="52" cy="32" r="5" fill="#dce0e8" stroke="#179299" stroke-width="1.5"/>
  <circle cx="52" cy="32" r="2" fill="#179299"/>
  <circle cx="52" cy="48" r="5" fill="#dce0e8" stroke="#179299" stroke-width="1.5"/>
  <circle cx="52" cy="48" r="2" fill="#179299"/>
  <line x1="40" y1="18" x2="47" y2="16" stroke="#179299" stroke-width="1" opacity="0.4"/>
  <line x1="40" y1="32" x2="47" y2="32" stroke="#179299" stroke-width="1" opacity="0.4"/>
  <line x1="40" y1="46" x2="47" y2="48" stroke="#179299" stroke-width="1" opacity="0.4"/>
  <!-- Lock -->
  <circle cx="21" cy="14" r="2.5" fill="#eff1f5" stroke="#179299" stroke-width="1"/>
  <circle cx="21" cy="14" r="1" fill="#179299"/>
  <!-- Wordmark -->
  <text x="72" y="41" font-family="-apple-system, BlinkMacSystemFont, 'Segoe UI', 'Helvetica Neue', sans-serif" font-size="32" font-weight="600" fill="#4c4f69" letter-spacing="-0.5">stash</text>
  <text x="157" y="41" font-family="-apple-system, BlinkMacSystemFont, 'Segoe UI', 'Helvetica Neue', sans-serif" font-size="32" font-weight="300" fill="#179299" letter-spacing="-0.5">-mcp</text>
</svg>
